PathFileType	4	(X/Y/Z)	RBDS09\RBDS09runT25.trc
DataRate	CameraRate	NumFrames	NumMarkers	Units	OrigDataRate	OrigDataStartFrame	OrigNumFrames
150.000000	150.000000	4	33	mm	150.000000	1125	4500
Frame#	Time	L.ASIS			L.Heel.Bottom			L.Heel.Lateral			L.Heel.Top			L.Iliac.Crest			L.MT1			L.MT5			L.PSIS			L.Shank.Bottom.Lateral			L.Shank.Bottom.Medial			L.Shank.Top.Lateral			L.Shank.Top.Medial			L.Thigh.Bottom.Lateral			L.Thigh.Bottom.Medial			L.Thigh.Top.Lateral			L.Thigh.Top.Medial			R.ASIS			R.ASY			R.Heel.Bottom			R.Heel.Lateral			R.Heel.Top			R.Iliac.Crest			R.MT1			R.MT5			R.PSIS			R.Shank.Bottom.Lateral			R.Shank.Bottom.Medial			R.Shank.Top.Lateral			R.Shank.Top.Medial			R.Thigh.Bottom.Lateral			R.Thigh.Bottom.Medial			R.Thigh.Top.Lateral			R.Thigh.Top.Medial			
		X1	Y1	Z1	X2	Y2	Z2	X3	Y3	Z3	X4	Y4	Z4	X5	Y5	Z5	X6	Y6	Z6	X7	Y7	Z7	X8	Y8	Z8	X9	Y9	Z9	X10	Y10	Z10	X11	Y11	Z11	X12	Y12	Z12	X13	Y13	Z13	X14	Y14	Z14	X15	Y15	Z15	X16	Y16	Z16	X17	Y17	Z17	X18	Y18	Z18	X19	Y19	Z19	X20	Y20	Z20	X21	Y21	Z21	X22	Y22	Z22	X23	Y23	Z23	X24	Y24	Z24	X25	Y25	Z25	X26	Y26	Z26	X27	Y27	Z27	X28	Y28	Z28	X29	Y29	Z29	X30	Y30	Z30	X31	Y31	Z31	X32	Y32	Z32	X33	Y33	Z33	

1126	7.500000000000001	2232.557296534851	992.917963036725	900.6732479025379	1667.350591961576	227.8259474380156	994.397813886031	1696.350179727461	212.9795101647416	947.6980488507501	1708.465713030246	252.9621682451659	986.3028652799735	2191.554716720827	1063.194100087987	879.1429917876969	1814.100096757082	71.03411373791212	1010.622908328596	1770.853863599393	92.45020186381954	911.4009361383086	2079.353056993933	1036.297008024461	1000.485468868254	1792.253111979805	298.6942379045555	919.3396375032416	1766.408195549703	316.8271678019284	962.8266249171949	1827.051250486564	370.1762496214164	908.5927146558181	1801.39908947964	389.391558901752	951.7397782924805	2013.612775914019	674.3143468122674	895.5414635545326	1980.853949422076	690.6300910756552	958.6959036420961	2042.530536268138	780.6687702564562	885.5491827948346	2016.061983222808	794.9221880369747	948.289049593853	2240.127166859687	1003.856627626966	1130.404224056297	2354.872802127424	150.9266197954404	1120.448813183722	2178.696757904423	119.1903642503607	1089.543306649562	2211.675467776434	130.2759456152909	1138.68591056942	2196.005862486817	164.7842650029393	1094.316504465885	2173.929538541609	1076.806003475051	1181.781178995592	2388.872563609703	104.9991160094138	1072.04958111363	2346.698057686309	87.53092532914494	1173.270679529602	2076.899874234916	1033.20029198409	1074.195273967408	2242.40874775093	258.3785576378951	1147.203742892468	2224.390506913166	265.6196523303753	1099.490192858263	2246.00068409649	342.4408694589869	1156.269738110914	2226.888500576859	345.9625017531451	1106.706379324823	2314.190182339937	639.7918741840102	1177.101804555245	2259.327338151384	604.6455019505357	1144.70239681722	2250.73263141752	728.9891264422473	1188.239327320311	2199.391184440105	696.9294210138064	1156.069789124061	
1127	7.506666666666667	2234.897358782905	994.1032578282184	901.301902075592	1661.212320012839	239.2546461139549	993.7031958602083	1689.689361006525	223.6945476099214	946.979027050361	1703.225274478897	263.0225647289945	985.6965248900234	2194.512729871902	1065.792864651642	880.0281335269794	1803.074745822838	77.40549420716381	1009.184515952519	1760.418611479102	100.5614720572544	910.2968892018173	2081.105951736562	1037.576072018691	999.676225391603	1787.921479212315	305.4179289361505	918.6125720097623	1762.39404772093	324.3782061062486	961.9453758624251	1824.706977707598	375.842713167671	907.7894070905268	1799.480541601324	395.8475045572309	950.846386061596	2016.644076979273	675.0448079091035	894.8423018741696	1982.982863340457	691.7218126141964	957.4176502631559	2045.625869303867	781.348807119307	884.5483071792921	2018.21237742308	795.9979881427244	946.7467816358177	2241.013096987637	1004.521552634668	1130.851405821014	2370.494537585977	148.5310541856804	1118.357282762222	2195.97819632074	108.4815326375787	1086.73421593334	2228.410467385914	120.5694530581935	1135.923229762325	2210.989626011279	154.8038784099093	1092.118976708187	2174.506235046202	1077.313693782541	1181.94375907162	2406.650531238398	105.0200338216723	1069.239910163094	2365.461613030574	83.96570335648248	1170.115478898121	2078.317109958027	1034.248240764302	1073.457035430284	2252.626049763129	250.7979768841229	1145.469201208054	2234.285519087563	257.7991505670593	1097.852129587042	2252.20369967116	334.785877343351	1155.402296472368	2232.792631284402	338.0946432619392	1105.958638924166	2308.983812415435	636.4986473607158	1177.595849849055	2254.124679173881	602.6913403609462	1143.975286333035	2247.150835433149	726.881192888667	1188.250145497384	2195.784964828325	696.0209869676422	1155.124568327569	
1128	7.513333333333334	2237.071794538598	994.9819845445155	901.9798821885747	1655.388911007991	250.7925401997415	993.3315601349505	1683.273948588516	234.632739747193	946.5146117196891	1698.210063360196	273.2359880684976	985.3809889875951	2196.802318429899	1067.850256294769	880.8193477671297	1792.391223926271	84.35393145521134	1007.801698404396	1750.240609696757	109.292972259126	909.2569495568443	2082.636878288344	1038.273685794376	998.8663929314854	1783.997056546653	312.2980055137469	918.1048865100572	1758.936751213103	332.1521652329738	961.3445991279696	1822.977358736581	381.4658723236647	907.1896917987721	1798.373783098252	402.3179570755561	950.2309014401282	2020.566484591217	674.6446626650295	894.0819321687378	1985.907621688599	691.54438296314	956.0604951687824	2049.214095641413	780.9985441778675	883.4929706054165	2020.71959310953	795.9442825505487	945.1130806272638	2241.698199302632	1004.719039190648	1131.462518437902	2384.573803759453	146.3065021766675	1116.423961274727	2211.919348336474	98.88611450329172	1083.748753095857	2243.768880232908	111.715999013054	1133.036841867018	2224.800481362816	145.7485561559204	1089.833161472063	2174.893150238283	1077.130829008179	1182.126804591085	2422.628759783363	105.198297153228	1066.602400370822	2382.383711893463	80.63967474381947	1167.022803737916	2079.524195850599	1034.690670796405	1072.717686137515	2261.793531913209	243.7284530416633	1143.681312196823	2243.210886990552	250.4984394224719	1096.143849094512	2257.557487873979	327.4818363926902	1154.380252561469	2237.935744569714	330.5810684935882	1105.025643397908	2303.627899640464	632.8300215528595	1178.108460642143	2248.895297493524	600.4532777335589	1143.018280107821	2243.391714139205	724.3304543924378	1188.391576865781	2192.089473599163	694.7333619050797	1154.145766494071	
1129	7.52	2239.089886057943	995.5064521803882	902.7111051654402	1650.015859002401	262.5178137581765	993.2094830515772	1677.245171032788	245.8273824087537	946.2405580245983	1693.575486830871	283.64926333013	985.2762274571998	2198.473504603629	1069.33750827957	881.4997028417654	1782.108546597495	91.85385608147213	1006.47043990818	1740.40330734309	118.6019921864035	908.2623048322931	2083.97070378936	1038.373905203469	998.0523693350237	1780.574495385683	319.3608058811337	917.7639426854323	1756.13410426021	340.1383880954036	960.979876078349	1821.922984016362	387.0754380419589	906.7772567489799	1798.125307621176	408.7981174204592	949.8753167336711	2025.307957738748	673.1012471990787	893.2928756132692	1989.630053575501	690.0534842582597	954.7045581537636	2053.226673489465	779.606104489721	882.4410631469561	2023.585156664072	794.7125214859229	943.4853826330091	2242.194782800232	1004.46369540382	1132.240488927613	2396.92687108057	144.0798647347985	1114.675301897261	2226.226114469103	90.3531128283841	1080.602012138255	2257.45888507253	103.6577985541549	1130.060191625269	2237.186650430481	137.586345126144	1087.461607056484	2175.091144652608	1076.331086110911	1182.320392553323	2436.63992074551	105.2827321191588	1064.196009310274	2397.208642593767	77.37343909937145	1164.052583409679	2080.542698013389	1034.529827994371	1071.973306533282	2269.727995790816	237.1339138346696	1141.830668260047	2251.035667699189	243.669847922104	1094.337136362406	2261.930605578743	320.539874363643	1153.159564225331	2242.249905286894	323.4129906179132	1103.836520244317	2298.284166502097	628.9021660170738	1178.595513972537	2243.758797915934	597.9856995639068	1141.916956424369	2239.595111700689	721.4439034417965	1188.627574307657	2188.4147400284	693.1259219563502	1153.187283241196	
